<svg width="192" height="35" viewBox="0 0 192 35" fill="none" xmlns="http://www.w3.org/2000/svg">
<circle cx="22.1429" cy="17.1429" r="9.14286" stroke="#3C4F76" stroke-width="6"/>
<circle opacity="0.2" cx="31.8567" cy="17.1429" r="9.14286" stroke="#383F51" stroke-width="6"/>
<path d="M61.0099 13.2337V15.5065H54.4403V13.2337H61.0099ZM55.9318 10.6201H58.9574V20.7905C58.9574 21.0699 59 21.2877 59.0852 21.444C59.1705 21.5955 59.2888 21.702 59.4403 21.7636C59.5966 21.8251 59.7765 21.8559 59.9801 21.8559C60.1222 21.8559 60.2642 21.8441 60.4062 21.8204C60.5483 21.792 60.6572 21.7707 60.733 21.7565L61.2088 24.0079C61.0573 24.0552 60.8442 24.1097 60.5696 24.1712C60.295 24.2375 59.9612 24.2778 59.5682 24.292C58.839 24.3204 58.1998 24.2233 57.6506 24.0008C57.1061 23.7782 56.6823 23.4326 56.3793 22.9638C56.0762 22.4951 55.9271 21.9032 55.9318 21.1883V10.6201ZM63.3808 24.1428V13.2337H66.4064V24.1428H63.3808ZM64.9007 11.8275C64.4509 11.8275 64.065 11.6783 63.743 11.38C63.4258 11.077 63.2672 10.7148 63.2672 10.2934C63.2672 9.87672 63.4258 9.51924 63.743 9.22095C64.065 8.91792 64.4509 8.7664 64.9007 8.7664C65.3505 8.7664 65.734 8.91792 66.0513 9.22095C66.3732 9.51924 66.5342 9.87672 66.5342 10.2934C66.5342 10.7148 66.3732 11.077 66.0513 11.38C65.734 11.6783 65.3505 11.8275 64.9007 11.8275ZM72.2556 9.59737V24.1428H69.23V9.59737H72.2556ZM81.8761 16.9695V19.3701H75.2426V16.9695H81.8761ZM84.8543 13.2337H87.8798V24.6826C87.8798 25.5254 87.7141 26.2072 87.3827 26.728C87.0512 27.2489 86.5754 27.63 85.9551 27.8715C85.3396 28.113 84.6033 28.2337 83.7463 28.2337C83.6421 28.2337 83.5427 28.2314 83.448 28.2266C83.3486 28.2266 83.2444 28.2243 83.1355 28.2195V25.8545C83.216 25.8592 83.287 25.8616 83.3486 25.8616C83.4054 25.8663 83.467 25.8687 83.5332 25.8687C84.0209 25.8687 84.3618 25.7645 84.556 25.5562C84.7548 25.3526 84.8543 25.0448 84.8543 24.6329V13.2337ZM86.3599 11.8275C85.9149 11.8275 85.5313 11.6783 85.2094 11.38C84.8874 11.077 84.7264 10.7148 84.7264 10.2934C84.7264 9.87672 84.8874 9.51924 85.2094 9.22095C85.5313 8.91792 85.9149 8.7664 86.3599 8.7664C86.8145 8.7664 87.2004 8.91792 87.5176 9.22095C87.8396 9.51924 88.0006 9.87672 88.0006 10.2934C88.0006 10.7148 87.8396 11.077 87.5176 11.38C87.2004 11.6783 86.8145 11.8275 86.3599 11.8275ZM97.6992 19.4979V13.2337H100.725V24.1428H97.82V22.1613H97.7063C97.4601 22.8005 97.0505 23.3142 96.4776 23.7025C95.9094 24.0907 95.2158 24.2849 94.3967 24.2849C93.6675 24.2849 93.0259 24.1191 92.4719 23.7877C91.918 23.4563 91.4847 22.9852 91.1722 22.3744C90.8645 21.7636 90.7082 21.032 90.7035 20.1798V13.2337H93.729V19.64C93.7338 20.2839 93.9066 20.7929 94.2475 21.167C94.5884 21.541 95.0453 21.728 95.6183 21.728C95.9828 21.728 96.3237 21.6452 96.641 21.4795C96.9582 21.309 97.2139 21.0581 97.408 20.7266C97.6069 20.3952 97.704 19.9856 97.6992 19.4979ZM103.545 24.1428V13.2337H106.428V15.1584H106.556C106.784 14.5192 107.162 14.015 107.693 13.6457C108.223 13.2763 108.857 13.0917 109.596 13.0917C110.344 13.0917 110.981 13.2787 111.507 13.6528C112.032 14.0221 112.382 14.524 112.558 15.1584H112.671C112.894 14.5334 113.296 14.0339 113.879 13.6599C114.466 13.2811 115.159 13.0917 115.96 13.0917C116.978 13.0917 117.804 13.416 118.438 14.0647C119.078 14.7086 119.397 15.6225 119.397 16.8062V24.1428H116.379V17.4028C116.379 16.7967 116.218 16.3422 115.896 16.0391C115.574 15.7361 115.171 15.5846 114.688 15.5846C114.139 15.5846 113.711 15.7598 113.403 16.1102C113.095 16.4558 112.941 16.9127 112.941 17.4809V24.1428H110.008V17.3388C110.008 16.8038 109.854 16.3777 109.546 16.0604C109.243 15.7432 108.843 15.5846 108.346 15.5846C108.01 15.5846 107.707 15.6698 107.437 15.8403C107.172 16.006 106.961 16.2404 106.805 16.5434C106.649 16.8417 106.57 17.1921 106.57 17.5945V24.1428H103.545ZM131.264 16.3445L128.494 16.515C128.447 16.2782 128.345 16.0652 128.188 15.8758C128.032 15.6816 127.826 15.5278 127.571 15.4141C127.32 15.2958 127.019 15.2366 126.669 15.2366C126.2 15.2366 125.805 15.336 125.483 15.5349C125.161 15.729 125 15.9894 125 16.3161C125 16.5765 125.104 16.7967 125.312 16.9766C125.52 17.1566 125.878 17.301 126.385 17.4099L128.359 17.8076C129.42 18.0254 130.21 18.3758 130.731 18.8587C131.252 19.3417 131.512 19.9762 131.512 20.7621C131.512 21.4771 131.302 22.1045 130.88 22.6442C130.464 23.184 129.891 23.6054 129.162 23.9084C128.437 24.2067 127.601 24.3559 126.654 24.3559C125.21 24.3559 124.06 24.0552 123.203 23.4539C122.35 22.8478 121.851 22.024 121.704 20.9823L124.68 20.8261C124.77 21.2664 124.988 21.6026 125.333 21.8346C125.679 22.0619 126.122 22.1755 126.662 22.1755C127.192 22.1755 127.618 22.0737 127.94 21.8701C128.267 21.6618 128.432 21.3942 128.437 21.0675C128.432 20.7929 128.316 20.568 128.089 20.3928C127.862 20.2129 127.511 20.0756 127.038 19.9809L125.149 19.6045C124.083 19.3914 123.29 19.0221 122.769 18.4965C122.253 17.9709 121.995 17.301 121.995 16.4866C121.995 15.7858 122.185 15.1821 122.563 14.6755C122.947 14.1689 123.484 13.7782 124.176 13.5036C124.872 13.229 125.686 13.0917 126.619 13.0917C127.997 13.0917 129.081 13.3829 129.872 13.9653C130.667 14.5477 131.131 15.3407 131.264 16.3445ZM136.928 24.3488C136.232 24.3488 135.612 24.228 135.068 23.9866C134.523 23.7404 134.092 23.3781 133.775 22.8999C133.462 22.417 133.306 21.8156 133.306 21.0959C133.306 20.4899 133.417 19.9809 133.64 19.569C133.863 19.157 134.166 18.8256 134.549 18.5746C134.933 18.3237 135.368 18.1343 135.856 18.0065C136.348 17.8786 136.864 17.7887 137.404 17.7366C138.039 17.6703 138.55 17.6087 138.938 17.5519C139.327 17.4904 139.608 17.4004 139.783 17.282C139.959 17.1637 140.046 16.9885 140.046 16.7565V16.7138C140.046 16.264 139.904 15.916 139.62 15.6698C139.341 15.4236 138.943 15.3005 138.427 15.3005C137.882 15.3005 137.449 15.4212 137.127 15.6627C136.805 15.8995 136.592 16.1977 136.488 16.5576L133.69 16.3303C133.832 15.6674 134.111 15.0945 134.528 14.6116C134.944 14.1239 135.482 13.7498 136.14 13.4894C136.803 13.2243 137.57 13.0917 138.441 13.0917C139.047 13.0917 139.627 13.1627 140.181 13.3048C140.74 13.4468 141.235 13.667 141.666 13.9653C142.101 14.2636 142.444 14.6471 142.695 15.1158C142.946 15.5798 143.072 16.1362 143.072 16.7849V24.1428H140.202V22.63H140.117C139.942 22.9709 139.708 23.2716 139.414 23.532C139.121 23.7877 138.768 23.9889 138.356 24.1357C137.944 24.2778 137.468 24.3488 136.928 24.3488ZM137.795 22.2607C138.24 22.2607 138.633 22.1731 138.974 21.9979C139.315 21.818 139.582 21.5765 139.776 21.2735C139.97 20.9705 140.068 20.6272 140.068 20.2437V19.086C139.973 19.1476 139.843 19.2044 139.677 19.2565C139.516 19.3038 139.334 19.3488 139.13 19.3914C138.926 19.4293 138.723 19.4648 138.519 19.4979C138.316 19.5263 138.131 19.5524 137.965 19.5761C137.61 19.6281 137.3 19.711 137.035 19.8246C136.77 19.9383 136.564 20.0922 136.417 20.2863C136.27 20.4757 136.197 20.7124 136.197 20.9965C136.197 21.4084 136.346 21.7233 136.644 21.9411C136.947 22.1542 137.331 22.2607 137.795 22.2607ZM145.819 24.1428V13.2337H148.752V15.1371H148.866C149.065 14.4601 149.399 13.9487 149.867 13.603C150.336 13.2527 150.876 13.0775 151.487 13.0775C151.638 13.0775 151.802 13.087 151.977 13.1059C152.152 13.1248 152.306 13.1509 152.438 13.184V15.8687C152.296 15.8261 152.1 15.7882 151.849 15.755C151.598 15.7219 151.368 15.7053 151.16 15.7053C150.715 15.7053 150.317 15.8024 149.967 15.9965C149.621 16.1859 149.347 16.4511 149.143 16.792C148.944 17.1329 148.845 17.5259 148.845 17.9709V24.1428H145.819ZM154.921 24.3275C154.452 24.3275 154.05 24.1618 153.714 23.8303C153.382 23.4941 153.217 23.0917 153.217 22.6229C153.217 22.1589 153.382 21.7612 153.714 21.4298C154.05 21.0983 154.452 20.9326 154.921 20.9326C155.376 20.9326 155.773 21.0983 156.114 21.4298C156.455 21.7612 156.626 22.1589 156.626 22.6229C156.626 22.9354 156.545 23.2219 156.384 23.4823C156.228 23.738 156.022 23.944 155.766 24.1002C155.511 24.2517 155.229 24.3275 154.921 24.3275ZM162.251 21.0036L162.258 17.3744H162.699L166.193 13.2337H169.666L164.971 18.7167H164.254L162.251 21.0036ZM159.51 24.1428V9.59737H162.535V24.1428H159.51ZM166.328 24.1428L163.118 19.3914L165.135 17.2536L169.872 24.1428H166.328ZM171.494 24.1428V22.3388L176.834 15.7266V15.6485H171.678V13.2337H180.478V15.2011L175.464 21.6499V21.728H180.663V24.1428H171.494Z" fill="#383F51"/>
</svg>
